<svg xmlns="http://www.w3.org/2000/svg" xmlns:xlink="http://www.w3.org/1999/xlink" width="512" zoomAndPan="magnify" viewBox="0 0 384 383.999986" height="512" preserveAspectRatio="xMidYMid meet" version="1.0"><defs><g/></defs><rect x="-38.4" width="460.8" fill="#ffffff" y="-38.399999" height="460.799983" fill-opacity="1"/><rect x="-38.4" width="460.8" fill="#ffffff" y="-38.399999" height="460.799983" fill-opacity="1"/><g fill="#000000" fill-opacity="1"><g transform="translate(56.627772, 187.901514)"><g><path d="M 67.980469 -23.449219 L 0 -23.449219 L 0 -1.417969 C 0 -0.785156 0.785156 0 1.730469 0 L 67.980469 0 C 69.082031 0 69.710938 -0.785156 69.710938 -1.417969 L 69.710938 -21.875 C 69.710938 -22.660156 69.082031 -23.449219 67.980469 -23.449219 Z M 24.078125 -47.523438 L 24.078125 -124.476562 C 24.078125 -125.105469 23.449219 -125.890625 22.503906 -125.890625 L 1.730469 -125.890625 C 0.785156 -125.890625 0 -125.105469 0 -124.476562 L 0 -47.523438 Z M 24.078125 -47.523438 "/></g></g></g><g fill="#000000" fill-opacity="1"><g transform="translate(129.957822, 187.901514)"><g><path d="M 72.386719 -62.632812 C 72.386719 -69.242188 67.195312 -74.589844 60.585938 -74.589844 C 53.976562 -74.589844 48.78125 -69.242188 48.78125 -62.632812 C 48.78125 -56.179688 53.976562 -50.828125 60.585938 -50.828125 C 67.195312 -50.828125 72.386719 -56.179688 72.386719 -62.632812 Z M 121.171875 -63.101562 C 121.171875 -94.417969 100.871094 -125.890625 60.742188 -125.890625 C 19.984375 -125.890625 0 -94.417969 0 -63.101562 C 0 -31.628906 19.984375 0 60.742188 0 C 100.871094 0 121.171875 -31.628906 121.171875 -63.101562 Z M 97.566406 -62.632812 C 97.566406 -42.332031 85.132812 -22.03125 60.742188 -22.03125 C 36.035156 -22.03125 23.761719 -42.332031 23.761719 -62.632812 C 23.761719 -83.246094 36.035156 -103.703125 60.742188 -103.703125 C 85.132812 -103.703125 97.566406 -83.246094 97.566406 -62.632812 Z M 97.566406 -62.632812 "/></g></g></g><g fill="#000000" fill-opacity="1"><g transform="translate(133.660996, 329.299655)"><g><path d="M 55.960938 -67.699219 C 47.269531 -71.816406 38.730469 -71.816406 37.96875 -71.816406 C 30.191406 -71.816406 22.71875 -76.390625 22.71875 -85.234375 C 22.71875 -94.996094 29.582031 -100.027344 37.96875 -100.027344 C 45.894531 -100.027344 52.605469 -95.910156 52.910156 -87.21875 C 52.910156 -86.761719 53.671875 -86 54.585938 -86 L 73.648438 -86 C 74.714844 -86 75.476562 -86.761719 75.324219 -87.21875 C 75.019531 -107.957031 58.855469 -121.984375 37.96875 -121.984375 C 18.449219 -121.984375 0 -108.109375 0 -85.234375 C 0 -71.054688 7.167969 -60.230469 19.824219 -54.433594 C 28.667969 -50.320312 36.898438 -50.320312 37.96875 -50.320312 C 44.828125 -50.011719 53.214844 -44.523438 53.214844 -35.527344 C 53.214844 -27.445312 46.050781 -21.957031 37.96875 -21.957031 C 37.96875 -21.957031 37.96875 -21.957031 37.816406 -21.957031 L 37.816406 0 C 37.96875 0 37.96875 0 37.96875 0 C 57.484375 0 75.78125 -12.65625 75.78125 -35.527344 C 75.78125 -49.859375 68.769531 -61.753906 55.960938 -67.699219 Z M 55.960938 -67.699219 "/></g></g></g><g fill="#000000" fill-opacity="1"><g transform="translate(213.253712, 329.299655)"><g><path d="M 70.140625 -60.6875 C 70.140625 -67.089844 65.109375 -72.277344 58.703125 -72.277344 C 52.300781 -72.277344 47.269531 -67.089844 47.269531 -60.6875 C 47.269531 -54.433594 52.300781 -49.25 58.703125 -49.25 C 65.109375 -49.25 70.140625 -54.433594 70.140625 -60.6875 Z M 117.410156 -61.144531 C 117.410156 -91.488281 97.738281 -121.984375 58.855469 -121.984375 C 19.363281 -121.984375 0 -91.488281 0 -61.144531 C 0 -30.648438 19.363281 0 58.855469 0 C 97.738281 0 117.410156 -30.648438 117.410156 -61.144531 Z M 94.539062 -60.6875 C 94.539062 -41.015625 82.492188 -21.347656 58.855469 -21.347656 C 34.917969 -21.347656 23.023438 -41.015625 23.023438 -60.6875 C 23.023438 -80.660156 34.917969 -100.484375 58.855469 -100.484375 C 82.492188 -100.484375 94.539062 -80.660156 94.539062 -60.6875 Z M 94.539062 -60.6875 "/></g></g></g></svg>